<?xml version="1.0" encoding="UTF-8" standalone="no"?>
<!-- Created with Bouml (http://bouml.free.fr/) -->
<!DOCTYPE svg PUBLIC "-//W3C//DTD SVG 1.1//EN" "http://www.w3.org/Graphics/SVG/1.1/DTD/svg11.dtd">
<svg width="1557" height="928" version="1.1" xmlns="http://www.w3.org/2000/svg">
<g>
	<rect fill="#dcdcdc" stroke="black" stroke-width="1" stroke-opacity="1" x="65" y="321" width="448" height="322" />
	<polygon fill="#dcdcdc" stroke="black" stroke-opacity="1" points="65,321 74,312 522,312 522,634 513,643 513,321 65,321" />
	<line stroke="black" stroke-opacity="1" x1="513" y1="321" x2="522" y2="312" />
	<text font-family="Helvetica" font-size="14" fill="#000000" xml:space="preserve" text-anchor="middle" x="289" y="337">:Docker</text>
</g>
<g>
	<rect fill="none" stroke="black" stroke-opacity="1" x="637" y="667" width="5" height="5" rx="10" />
</g>
<g>
	<rect fill="none" stroke="black" stroke-opacity="1" x="637" y="817" width="5" height="5" rx="10" />
</g>
<g>
	<rect fill="none" stroke="black" stroke-opacity="1" x="637" y="69" width="5" height="5" rx="10" />
</g>
<g>
	<rect fill="none" stroke="black" stroke-opacity="1" x="637" y="285" width="5" height="5" rx="10" />
</g>
<g>
	<rect fill="none" stroke="black" stroke-opacity="1" x="637" y="466" width="5" height="5" rx="10" />
</g>
<g>
	<rect fill="#dcdcdc" stroke="black" stroke-width="1" stroke-opacity="1" x="822" y="507" width="413" height="333" />
	<polygon fill="#dcdcdc" stroke="black" stroke-opacity="1" points="822,507 831,498 1244,498 1244,831 1235,840 1235,507 822,507" />
	<line stroke="black" stroke-opacity="1" x1="1235" y1="507" x2="1244" y2="498" />
	<text font-family="Helvetica" font-size="14" fill="#000000" xml:space="preserve" text-anchor="middle" x="1029" y="523">:Cliente Java</text>
</g>
<g>
	<rect fill="#dcdcdc" stroke="black" stroke-width="1" stroke-opacity="1" x="836" y="118" width="401" height="329" />
	<polygon fill="#dcdcdc" stroke="black" stroke-opacity="1" points="836,118 845,109 1246,109 1246,438 1237,447 1237,118 836,118" />
	<line stroke="black" stroke-opacity="1" x1="1237" y1="118" x2="1246" y2="109" />
	<text font-family="Helvetica" font-size="14" fill="#000000" xml:space="preserve" text-anchor="middle" x="1037" y="134">:Cliente Python</text>
</g>
<g>
	<line stroke="black" stroke-opacity="1" x1="639" y1="74" x2="639" y2="284" />
</g>
<g>
	<line stroke="black" stroke-opacity="1" x1="639" y1="290" x2="639" y2="465" />
</g>
<g>
	<line stroke="black" stroke-opacity="1" x1="522" y1="470" x2="636" y2="468" />
</g>
<g>
	<line stroke="black" stroke-opacity="1" x1="642" y1="286" x2="835" y2="282" />
</g>
<g>
	<line stroke="black" stroke-opacity="1" x1="639" y1="672" x2="639" y2="816" />
</g>
<g>
	<line stroke="black" stroke-opacity="1" x1="642" y1="669" x2="821" y2="669" />
</g>
<g>
	<line stroke="black" stroke-opacity="1" x1="639" y1="471" x2="639" y2="666" />
</g>
<g>
	<rect fill="#cbcbcb" stroke="none" stroke-opacity="1" x="1122" y="195" width="2" height="64" />
	<rect fill="#cbcbcb" stroke="none" stroke-opacity="1" x="952" y="257" width="172" height="2" />
	<rect fill="#c0ffc0" stroke="black" stroke-width="1" stroke-opacity="1" x="949" y="192" width="173" height="65" />
	<text font-family="Helvetica" font-size="14" fill="#000000" xml:space="preserve" text-anchor="middle" x="1036" y="220">&lt;&lt;artifact&gt;&gt;</text>
	<text font-family="Helvetica" font-size="14" fill="#000000" xml:space="preserve" font-weight="bold" text-anchor="middle" x="1036" y="253">cliente.py</text>
	<polygon fill="none" stroke="black" stroke-opacity="1" points="1094,195 1111,195 1111,203 1119,203 1119,230 1094,230 1094,195" />
	<line stroke="black" stroke-opacity="1" x1="1111" y1="195" x2="1119" y2="203" />
</g>
<g>
	<rect fill="#cbcbcb" stroke="none" stroke-opacity="1" x="1029" y="336" width="2" height="64" />
	<rect fill="#cbcbcb" stroke="none" stroke-opacity="1" x="859" y="398" width="172" height="2" />
	<rect fill="#c0ffc0" stroke="black" stroke-width="1" stroke-opacity="1" x="856" y="333" width="173" height="65" />
	<text font-family="Helvetica" font-size="14" fill="#000000" xml:space="preserve" text-anchor="middle" x="943" y="361">&lt;&lt;artifact&gt;&gt;</text>
	<text font-family="Helvetica" font-size="14" fill="#000000" xml:space="preserve" font-weight="bold" text-anchor="middle" x="943" y="394">cv2</text>
	<polygon fill="none" stroke="black" stroke-opacity="1" points="1001,336 1018,336 1018,344 1026,344 1026,371 1001,371 1001,336" />
	<line stroke="black" stroke-opacity="1" x1="1018" y1="336" x2="1026" y2="344" />
</g>
<g>
	<rect fill="#cbcbcb" stroke="none" stroke-opacity="1" x="1216" y="336" width="2" height="64" />
	<rect fill="#cbcbcb" stroke="none" stroke-opacity="1" x="1046" y="398" width="172" height="2" />
	<rect fill="#c0ffc0" stroke="black" stroke-width="1" stroke-opacity="1" x="1043" y="333" width="173" height="65" />
	<text font-family="Helvetica" font-size="14" fill="#000000" xml:space="preserve" text-anchor="middle" x="1130" y="361">&lt;&lt;artifact&gt;&gt;</text>
	<text font-family="Helvetica" font-size="14" fill="#000000" xml:space="preserve" font-weight="bold" text-anchor="middle" x="1130" y="394">Python3.7</text>
	<polygon fill="none" stroke="black" stroke-opacity="1" points="1188,336 1205,336 1205,344 1213,344 1213,371 1188,371 1188,336" />
	<line stroke="black" stroke-opacity="1" x1="1205" y1="336" x2="1213" y2="344" />
</g>
<g>
	<rect fill="#cbcbcb" stroke="none" stroke-opacity="1" x="1033" y="702" width="2" height="64" />
	<rect fill="#cbcbcb" stroke="none" stroke-opacity="1" x="863" y="764" width="172" height="2" />
	<rect fill="#c0ffc0" stroke="black" stroke-width="1" stroke-opacity="1" x="860" y="699" width="173" height="65" />
	<text font-family="Helvetica" font-size="14" fill="#000000" xml:space="preserve" text-anchor="middle" x="947" y="727">&lt;&lt;artifact&gt;&gt;</text>
	<text font-family="Helvetica" font-size="14" fill="#000000" xml:space="preserve" font-weight="bold" text-anchor="middle" x="947" y="760">cv2</text>
	<polygon fill="none" stroke="black" stroke-opacity="1" points="1005,702 1022,702 1022,710 1030,710 1030,737 1005,737 1005,702" />
	<line stroke="black" stroke-opacity="1" x1="1022" y1="702" x2="1030" y2="710" />
</g>
<g>
	<rect fill="#cbcbcb" stroke="none" stroke-opacity="1" x="1218" y="701" width="2" height="64" />
	<rect fill="#cbcbcb" stroke="none" stroke-opacity="1" x="1048" y="763" width="172" height="2" />
	<rect fill="#c0ffc0" stroke="black" stroke-width="1" stroke-opacity="1" x="1045" y="698" width="173" height="65" />
	<text font-family="Helvetica" font-size="14" fill="#000000" xml:space="preserve" text-anchor="middle" x="1132" y="726">&lt;&lt;artifact&gt;&gt;</text>
	<text font-family="Helvetica" font-size="14" fill="#000000" xml:space="preserve" font-weight="bold" text-anchor="middle" x="1132" y="759">java</text>
	<polygon fill="none" stroke="black" stroke-opacity="1" points="1190,701 1207,701 1207,709 1215,709 1215,736 1190,736 1190,701" />
	<line stroke="black" stroke-opacity="1" x1="1207" y1="701" x2="1215" y2="709" />
</g>
<g>
	<line stroke="black" stroke-opacity="1" x1="965" y1="332" x2="973" y2="330" />
	<line stroke="black" stroke-opacity="1" x1="965" y1="332" x2="963" y2="323" />
	<line stroke-dasharray="4,4" stroke="black" stroke-opacity="1" x1="1013" y1="260" x2="965" y2="332" />
</g>
<g>
	<line stroke="black" stroke-opacity="1" x1="1107" y1="332" x2="1108" y2="323" />
	<line stroke="black" stroke-opacity="1" x1="1107" y1="332" x2="1098" y2="330" />
	<line stroke-dasharray="4,4" stroke="black" stroke-opacity="1" x1="1059" y1="260" x2="1107" y2="332" />
</g>
<g>
	<rect fill="#cbcbcb" stroke="none" stroke-opacity="1" x="1122" y="572" width="2" height="64" />
	<rect fill="#cbcbcb" stroke="none" stroke-opacity="1" x="952" y="634" width="172" height="2" />
	<rect fill="#c0ffc0" stroke="black" stroke-width="1" stroke-opacity="1" x="949" y="569" width="173" height="65" />
	<text font-family="Helvetica" font-size="14" fill="#000000" xml:space="preserve" text-anchor="middle" x="1036" y="597">&lt;&lt;artifact&gt;&gt;</text>
	<text font-family="Helvetica" font-size="14" fill="#000000" xml:space="preserve" font-weight="bold" text-anchor="middle" x="1036" y="630">cliente.java</text>
	<polygon fill="none" stroke="black" stroke-opacity="1" points="1094,572 1111,572 1111,580 1119,580 1119,607 1094,607 1094,572" />
	<line stroke="black" stroke-opacity="1" x1="1111" y1="572" x2="1119" y2="580" />
</g>
<g>
	<rect fill="#cbcbcb" stroke="none" stroke-opacity="1" x="367" y="365" width="2" height="64" />
	<rect fill="#cbcbcb" stroke="none" stroke-opacity="1" x="197" y="427" width="172" height="2" />
	<rect fill="#c0ffc0" stroke="black" stroke-width="1" stroke-opacity="1" x="194" y="362" width="173" height="65" />
	<text font-family="Helvetica" font-size="14" fill="#000000" xml:space="preserve" text-anchor="middle" x="281" y="390">&lt;&lt;artifact&gt;&gt;</text>
	<text font-family="Helvetica" font-size="14" fill="#000000" xml:space="preserve" font-weight="bold" text-anchor="middle" x="281" y="423">servidor.py</text>
	<polygon fill="none" stroke="black" stroke-opacity="1" points="339,365 356,365 356,373 364,373 364,400 339,400 339,365" />
	<line stroke="black" stroke-opacity="1" x1="356" y1="365" x2="364" y2="373" />
</g>
<g>
	<line stroke="black" stroke-opacity="1" x1="969" y1="698" x2="977" y2="696" />
	<line stroke="black" stroke-opacity="1" x1="969" y1="698" x2="967" y2="689" />
	<line stroke-dasharray="4,4" stroke="black" stroke-opacity="1" x1="1011" y1="637" x2="969" y2="698" />
</g>
<g>
	<line stroke="black" stroke-opacity="1" x1="1107" y1="697" x2="1108" y2="688" />
	<line stroke="black" stroke-opacity="1" x1="1107" y1="697" x2="1098" y2="695" />
	<line stroke-dasharray="4,4" stroke="black" stroke-opacity="1" x1="1062" y1="637" x2="1107" y2="697" />
</g>
<g>
	<rect fill="#cbcbcb" stroke="none" stroke-opacity="1" x="381" y="456" width="2" height="64" />
	<rect fill="#cbcbcb" stroke="none" stroke-opacity="1" x="189" y="518" width="194" height="2" />
	<rect fill="#c0ffc0" stroke="black" stroke-width="1" stroke-opacity="1" x="186" y="453" width="195" height="65" />
	<text font-family="Helvetica" font-size="14" fill="#000000" xml:space="preserve" text-anchor="middle" x="284" y="481">&lt;&lt;artifact&gt;&gt;</text>
	<text font-family="Helvetica" font-size="14" fill="#000000" xml:space="preserve" font-weight="bold" text-anchor="middle" x="284" y="514">capacitor_detector.py</text>
	<polygon fill="none" stroke="black" stroke-opacity="1" points="353,456 370,456 370,464 378,464 378,491 353,491 353,456" />
	<line stroke="black" stroke-opacity="1" x1="370" y1="456" x2="378" y2="464" />
</g>
<g>
	<line stroke="black" stroke-opacity="1" x1="282" y1="452" x2="288" y2="446" />
	<line stroke="black" stroke-opacity="1" x1="282" y1="452" x2="276" y2="446" />
	<line stroke-dasharray="4,4" stroke="black" stroke-opacity="1" x1="282" y1="430" x2="282" y2="452" />
</g>
<g>
	<rect fill="#cbcbcb" stroke="none" stroke-opacity="1" x="469" y="564" width="2" height="64" />
	<rect fill="#cbcbcb" stroke="none" stroke-opacity="1" x="299" y="626" width="172" height="2" />
	<rect fill="#c0ffc0" stroke="black" stroke-width="1" stroke-opacity="1" x="296" y="561" width="173" height="65" />
	<text font-family="Helvetica" font-size="14" fill="#000000" xml:space="preserve" text-anchor="middle" x="383" y="589">&lt;&lt;artifact&gt;&gt;</text>
	<text font-family="Helvetica" font-size="14" fill="#000000" xml:space="preserve" font-weight="bold" text-anchor="middle" x="383" y="622">cv2</text>
	<polygon fill="none" stroke="black" stroke-opacity="1" points="441,564 458,564 458,572 466,572 466,599 441,599 441,564" />
	<line stroke="black" stroke-opacity="1" x1="458" y1="564" x2="466" y2="572" />
</g>
<g>
	<rect fill="#cbcbcb" stroke="none" stroke-opacity="1" x="257" y="564" width="2" height="64" />
	<rect fill="#cbcbcb" stroke="none" stroke-opacity="1" x="87" y="626" width="172" height="2" />
	<rect fill="#c0ffc0" stroke="black" stroke-width="1" stroke-opacity="1" x="84" y="561" width="173" height="65" />
	<text font-family="Helvetica" font-size="14" fill="#000000" xml:space="preserve" text-anchor="middle" x="171" y="589">&lt;&lt;artifact&gt;&gt;</text>
	<text font-family="Helvetica" font-size="14" fill="#000000" xml:space="preserve" font-weight="bold" text-anchor="middle" x="171" y="622">Python3.7</text>
	<polygon fill="none" stroke="black" stroke-opacity="1" points="229,564 246,564 246,572 254,572 254,599 229,599 229,564" />
	<line stroke="black" stroke-opacity="1" x1="246" y1="564" x2="254" y2="572" />
</g>
<g>
	<line stroke="black" stroke-opacity="1" x1="205" y1="560" x2="213" y2="560" />
	<line stroke="black" stroke-opacity="1" x1="205" y1="560" x2="205" y2="551" />
	<line stroke-dasharray="4,4" stroke="black" stroke-opacity="1" x1="246" y1="521" x2="205" y2="560" />
</g>
<g>
	<line stroke="black" stroke-opacity="1" x1="352" y1="560" x2="352" y2="551" />
	<line stroke="black" stroke-opacity="1" x1="352" y1="560" x2="343" y2="559" />
	<line stroke-dasharray="4,4" stroke="black" stroke-opacity="1" x1="316" y1="521" x2="352" y2="560" />
</g>
</svg>
